<?xml version="1.0" standalone="no"?>
<!DOCTYPE svg PUBLIC "-//W3C//DTD SVG 20010904//EN"
 "http://www.w3.org/TR/2001/REC-SVG-20010904/DTD/svg10.dtd">
<svg version="1.0" xmlns="http://www.w3.org/2000/svg"
 width="1024.000000pt" height="1024.000000pt" viewBox="0 0 1024.000000 1024.000000"
 preserveAspectRatio="xMidYMid meet">

<g transform="translate(0.000000,1024.000000) scale(0.100000,-0.100000)"
fill="#1E88E5" stroke="none">
<path d="M7465 8730 c-461 -52 -844 -279 -1088 -644 -264 -394 -316 -879 -142
-1318 42 -106 61 -139 231 -403 214 -335 281 -495 320 -772 17 -125 36 -163
98 -192 43 -21 51 -21 728 -19 l685 3 37 29 c47 35 63 73 77 173 37 272 126
484 337 798 74 110 154 241 178 290 186 392 186 833 -1 1232 -229 487 -711
802 -1265 827 -63 2 -151 1 -195 -4z m403 -682 c7 -7 12 -22 12 -34 0 -12 -41
-176 -90 -365 -50 -188 -88 -349 -85 -357 4 -12 40 -14 218 -12 116 2 222 2
233 1 25 -1 37 -23 27 -48 -16 -42 -795 -1058 -825 -1077 -23 -14 -52 3 -56
31 -2 11 15 85 37 164 82 299 151 560 151 574 0 13 -33 15 -226 15 -229 0
-264 5 -264 38 0 16 146 212 568 762 254 330 265 343 300 308z"/>
<path d="M2022 8114 c-12 -8 -19 -20 -16 -26 4 -6 2 -8 -3 -5 -6 4 -15 1 -21
-6 -6 -7 -49 -156 -97 -332 -47 -176 -104 -382 -126 -457 -21 -75 -39 -139
-39 -142 0 -3 247 -6 549 -6 l549 0 121 489 c67 269 121 492 121 495 0 3 -228
6 -508 6 -445 0 -510 -2 -530 -16z"/>
<path d="M3255 8118 c-3 -7 -56 -222 -119 -478 -63 -256 -118 -473 -121 -482
-7 -17 22 -18 529 -18 l535 0 10 38 c47 177 231 925 231 937 0 13 -63 15 -530
15 -415 0 -532 -3 -535 -12z"/>
<path d="M4520 8126 c0 -2 -25 -103 -55 -223 -43 -175 -155 -631 -180 -740
l-5 -23 584 0 c548 0 585 1 590 18 2 9 26 112 51 227 26 116 71 316 101 445
30 129 54 241 54 251 0 9 -8 23 -18 32 -17 15 -71 17 -570 17 -304 0 -552 -2
-552 -4z"/>
<path d="M1656 6888 c-24 -95 -245 -909 -251 -925 -3 -10 112 -13 554 -13
l558 0 16 58 c49 178 125 476 173 677 29 127 56 240 59 253 l5 22 -548 0 -548
0 -18 -72z"/>
<path d="M2961 6928 c-6 -18 -46 -179 -90 -358 -43 -179 -95 -387 -115 -463
-20 -75 -36 -142 -36 -147 0 -7 188 -10 539 -10 l538 0 6 33 c3 17 56 237 116
487 61 250 113 463 115 473 4 16 -26 17 -529 17 l-533 0 -11 -32z m502 15 c-7
-2 -19 -2 -25 0 -7 3 -2 5 12 5 14 0 19 -2 13 -5z m44 1 c-3 -3 -12 -4 -19 -1
-8 3 -5 6 6 6 11 1 17 -2 13 -5z m220 0 c-3 -3 -12 -4 -19 -1 -8 3 -5 6 6 6
11 1 17 -2 13 -5z m136 -1 c-7 -2 -21 -2 -30 0 -10 3 -4 5 12 5 17 0 24 -2 18
-5z m145 0 c-10 -2 -28 -2 -40 0 -13 2 -5 4 17 4 22 1 32 -1 23 -4z"/>
<path d="M4126 6507 c-59 -248 -114 -476 -121 -504 l-13 -53 439 0 c345 0 439
-3 439 -12 -1 -36 -30 -131 -45 -148 -17 -19 -33 -20 -445 -20 l-427 0 -16
-57 c-9 -32 -38 -152 -66 -268 -133 -550 -171 -707 -171 -711 0 -2 229 -4 508
-4 l508 0 18 -41 c72 -163 296 -205 437 -81 20 17 43 49 53 70 l18 39 191 5
c105 3 206 1 224 -4 56 -15 67 -45 74 -193 6 -114 10 -140 34 -193 33 -73 84
-123 164 -161 l56 -26 581 0 581 0 71 -67 c66 -62 177 -128 215 -128 36 0 24
-30 -23 -63 -23 -16 -111 -17 -1232 -17 l-1207 0 -15 29 c-53 102 -214 163
-337 128 -158 -46 -239 -230 -170 -384 26 -59 103 -136 158 -159 53 -23 152
-19 213 7 57 25 122 90 141 142 l13 37 1188 0 c840 0 1203 3 1240 11 111 24
178 71 248 176 51 76 52 77 122 99 87 28 163 77 219 144 32 36 65 61 119 87
130 63 241 196 256 307 9 63 -3 114 -33 142 l-26 24 -718 0 -718 0 -28 -24
c-26 -23 -28 -29 -28 -104 0 -76 2 -83 37 -133 20 -29 36 -54 34 -56 -1 -1
-194 -3 -428 -3 -457 -1 -456 -2 -503 50 -17 19 -21 42 -27 154 -3 72 -11 148
-17 168 -25 82 -125 174 -214 199 -26 7 -119 11 -248 10 l-206 -2 -12 29 c-28
68 -142 152 -207 152 -13 0 -24 4 -24 9 0 5 23 116 50 248 28 131 53 250 57
265 l5 27 37 -29 c134 -108 345 -67 422 83 l19 37 216 0 c228 0 259 -5 299
-50 19 -21 20 -34 17 -315 -3 -247 -1 -302 12 -348 20 -69 67 -132 130 -175
91 -61 97 -61 696 -65 300 -1 729 0 953 3 l409 5 29 33 c29 32 29 33 29 158
l0 126 -34 34 -33 33 -713 0 c-458 0 -720 -4 -732 -10 -34 -18 -58 -70 -58
-126 l0 -53 -199 0 c-190 0 -199 1 -232 23 -60 40 -61 44 -55 342 5 318 -2
371 -62 450 -43 57 -117 100 -201 115 -29 6 -146 10 -260 10 l-206 0 -24 46
c-30 55 -69 89 -140 122 -46 21 -63 24 -132 20 -69 -4 -79 -3 -75 11 3 9 44
192 91 406 47 215 88 398 91 408 5 16 -27 17 -583 17 l-588 0 -109 -453z m287
436 c-7 -2 -21 -2 -30 0 -10 3 -4 5 12 5 17 0 24 -2 18 -5z m60 0 c-7 -2 -19
-2 -25 0 -7 3 -2 5 12 5 17 0 24 -2 18 -5z m155 0 c-10 -2 -28 -2 -40 0 -13 2
-5 4 17 4 22 1 32 -1 23 -4z m200 0 c-32 -2 -86 -2 -120 0 -35 2 -9 3 57 3 66
0 94 -1 63 -3z m249 1 c-3 -3 -12 -4 -19 -1 -8 3 -5 6 6 6 11 1 17 -2 13 -5z
m46 -1 c-7 -2 -19 -2 -25 0 -7 3 -2 5 12 5 14 0 19 -2 13 -5z m80 0 c-7 -2
-21 -2 -30 0 -10 3 -4 5 12 5 17 0 24 -2 18 -5z m135 0 c-10 -2 -26 -2 -35 0
-10 3 -2 5 17 5 19 0 27 -2 18 -5z m49 1 c-3 -3 -12 -4 -19 -1 -8 3 -5 6 6 6
11 1 17 -2 13 -5z m-177 -829 c0 -2 -10 -9 -22 -15 -22 -11 -22 -10 -4 4 21
17 26 19 26 11z m-70 -38 c0 -2 -10 -12 -22 -23 l-23 -19 19 23 c18 21 26 27
26 19z m-81 -357 c11 -24 11 -24 -3 -6 -9 11 -16 24 -16 30 0 12 5 7 19 -24z
m-126 -617 c-7 -2 -19 -2 -25 0 -7 3 -2 5 12 5 14 0 19 -2 13 -5z m-153 -77
c0 -2 -8 -10 -17 -17 -16 -13 -17 -12 -4 4 13 16 21 21 21 13z"/>
<path d="M1355 5758 c-2 -7 -14 -51 -25 -98 -12 -47 -69 -251 -126 -455 -57
-203 -104 -384 -104 -402 0 -20 8 -41 20 -53 20 -20 33 -20 558 -20 l537 0
128 513 c70 281 127 515 127 520 0 4 -250 7 -555 7 -436 0 -557 -3 -560 -12z"/>
<path d="M2651 5693 c-11 -43 -51 -199 -87 -348 -36 -148 -85 -348 -109 -442
l-43 -173 314 0 314 0 0 -310 c0 -170 1 -313 3 -317 1 -5 -116 -10 -260 -13
l-261 -5 -27 -25 c-43 -40 -55 -73 -62 -170 l-6 -90 842 0 841 0 0 83 c0 100
-22 154 -72 185 -34 21 -47 22 -287 22 l-251 0 0 319 0 319 51 208 c27 115 84
346 125 513 41 167 74 307 74 312 0 5 -234 9 -539 9 l-539 0 -21 -77z m442
-950 c-7 -2 -21 -2 -30 0 -10 3 -4 5 12 5 17 0 24 -2 18 -5z m44 1 c-3 -3 -12
-4 -19 -1 -8 3 -5 6 6 6 11 1 17 -2 13 -5z m206 -1 c-34 -2 -93 -2 -130 0 -37
2 -9 3 62 3 72 0 102 -1 68 -3z m130 0 c-13 -2 -33 -2 -45 0 -13 2 -3 4 22 4
25 0 35 -2 23 -4z"/>
</g>
</svg>
